# xmcd CD database file
#
# Track frame offsets:
#	150
#	121830
#	134929
#
# Disc length: 2447 seconds
#
# Revision: 0
# Processed by: cddbd v1.5.1PL0 Copyright (c) Steve Scherf et al.
# Submitted via: CDex 1.51
#
DISCID=29098d03
DTITLE=Alan Shorter - Tes Esat
DYEAR=1970
DGENRE=Jazz
TTITLE0=Disposition
TTITLE1=Beast Of Bash
TTITLE2=One Million Sqaured
EXTD=YEAR: 1970
EXTT0=
EXTT1=
EXTT2=
PLAYORDER=
